<mxfile host="app.diagrams.net" modified="2020-11-19T01:01:37.744Z" agent="5.0 (Windows NT 10.0; Win64; x64) AppleWebKit/537.36 (KHTML, like Gecko) Chrome/86.0.4240.198 Safari/537.36" etag="L8SGR150ZOj1ns5wh3If" version="13.9.3" type="github">
  <diagram id="QiM9oSrPAjDkkbRO5tYO" name="Page-1">
    <mxGraphModel dx="1422" dy="762" grid="1" gridSize="10" guides="1" tooltips="1" connect="1" arrows="1" fold="1" page="1" pageScale="1" pageWidth="850" pageHeight="1100" math="0" shadow="0">
      <root>
        <mxCell id="0" />
        <mxCell id="1" parent="0" />
        <mxCell id="tbHWGJce0Dj6GsjQu1Z4-2" value="" style="edgeStyle=orthogonalEdgeStyle;rounded=0;orthogonalLoop=1;jettySize=auto;html=1;" parent="1" source="eRuPD94aAmWbf7h1Lmvu-1" target="tbHWGJce0Dj6GsjQu1Z4-1" edge="1">
          <mxGeometry relative="1" as="geometry" />
        </mxCell>
        <mxCell id="tbHWGJce0Dj6GsjQu1Z4-14" value="" style="edgeStyle=orthogonalEdgeStyle;rounded=0;orthogonalLoop=1;jettySize=auto;html=1;" parent="1" source="eRuPD94aAmWbf7h1Lmvu-1" target="tbHWGJce0Dj6GsjQu1Z4-13" edge="1">
          <mxGeometry relative="1" as="geometry">
            <Array as="points">
              <mxPoint x="190.08" y="31" />
              <mxPoint x="190.08" y="31" />
            </Array>
          </mxGeometry>
        </mxCell>
        <mxCell id="eRuPD94aAmWbf7h1Lmvu-1" value="Read the abstract" style="rounded=1;whiteSpace=wrap;html=1;glass=0;shadow=0;sketch=0;fillColor=#d5e8d4;strokeColor=#82b366;" parent="1" vertex="1">
          <mxGeometry x="30.080000000000013" y="10" width="140" height="40" as="geometry" />
        </mxCell>
        <mxCell id="tbHWGJce0Dj6GsjQu1Z4-7" value="" style="edgeStyle=orthogonalEdgeStyle;rounded=0;orthogonalLoop=1;jettySize=auto;html=1;" parent="1" source="tbHWGJce0Dj6GsjQu1Z4-1" target="tbHWGJce0Dj6GsjQu1Z4-6" edge="1">
          <mxGeometry relative="1" as="geometry" />
        </mxCell>
        <mxCell id="tbHWGJce0Dj6GsjQu1Z4-17" value="" style="edgeStyle=orthogonalEdgeStyle;rounded=0;orthogonalLoop=1;jettySize=auto;html=1;" parent="1" source="tbHWGJce0Dj6GsjQu1Z4-1" target="tbHWGJce0Dj6GsjQu1Z4-16" edge="1">
          <mxGeometry relative="1" as="geometry">
            <Array as="points">
              <mxPoint x="180.08" y="135" />
              <mxPoint x="180.08" y="135" />
            </Array>
          </mxGeometry>
        </mxCell>
        <mxCell id="tbHWGJce0Dj6GsjQu1Z4-1" value="&lt;div style=&quot;text-align: center&quot;&gt;&lt;span&gt;&amp;nbsp; &amp;nbsp; &amp;nbsp; &amp;nbsp; Read&lt;/span&gt;&lt;/div&gt;&lt;ul&gt;&lt;li&gt;Introduction&lt;/li&gt;&lt;li&gt;Related works&lt;/li&gt;&lt;li&gt;Section Titles&lt;/li&gt;&lt;li&gt;Figures&lt;/li&gt;&lt;li&gt;Math&amp;nbsp;&lt;/li&gt;&lt;li&gt;Conclusion&lt;/li&gt;&lt;/ul&gt;" style="whiteSpace=wrap;html=1;rounded=1;align=left;fillColor=#d5e8d4;strokeColor=#82b366;spacingLeft=-5;" parent="1" vertex="1">
          <mxGeometry x="30.080000000000013" y="70" width="140" height="130" as="geometry" />
        </mxCell>
        <mxCell id="tbHWGJce0Dj6GsjQu1Z4-10" value="" style="edgeStyle=orthogonalEdgeStyle;rounded=0;orthogonalLoop=1;jettySize=auto;html=1;" parent="1" source="tbHWGJce0Dj6GsjQu1Z4-3" target="tbHWGJce0Dj6GsjQu1Z4-9" edge="1">
          <mxGeometry relative="1" as="geometry" />
        </mxCell>
        <mxCell id="tbHWGJce0Dj6GsjQu1Z4-25" value="" style="edgeStyle=orthogonalEdgeStyle;rounded=0;orthogonalLoop=1;jettySize=auto;html=1;" parent="1" source="tbHWGJce0Dj6GsjQu1Z4-3" target="tbHWGJce0Dj6GsjQu1Z4-24" edge="1">
          <mxGeometry relative="1" as="geometry" />
        </mxCell>
        <mxCell id="tbHWGJce0Dj6GsjQu1Z4-3" value="Read all sections" style="whiteSpace=wrap;html=1;rounded=1;align=center;fillColor=#d5e8d4;strokeColor=#82b366;" parent="1" vertex="1">
          <mxGeometry x="30.080000000000013" y="300" width="140" height="30" as="geometry" />
        </mxCell>
        <mxCell id="tbHWGJce0Dj6GsjQu1Z4-8" style="edgeStyle=orthogonalEdgeStyle;rounded=0;orthogonalLoop=1;jettySize=auto;html=1;exitX=0.5;exitY=1;exitDx=0;exitDy=0;entryX=0.5;entryY=0;entryDx=0;entryDy=0;" parent="1" source="tbHWGJce0Dj6GsjQu1Z4-6" target="tbHWGJce0Dj6GsjQu1Z4-3" edge="1">
          <mxGeometry relative="1" as="geometry" />
        </mxCell>
        <mxCell id="tbHWGJce0Dj6GsjQu1Z4-20" value="" style="edgeStyle=orthogonalEdgeStyle;rounded=0;orthogonalLoop=1;jettySize=auto;html=1;" parent="1" source="tbHWGJce0Dj6GsjQu1Z4-6" target="tbHWGJce0Dj6GsjQu1Z4-19" edge="1">
          <mxGeometry relative="1" as="geometry">
            <Array as="points">
              <mxPoint x="180.08" y="250" />
              <mxPoint x="180.08" y="205" />
            </Array>
          </mxGeometry>
        </mxCell>
        <mxCell id="tbHWGJce0Dj6GsjQu1Z4-6" value="List your own potential solutions to the problem" style="whiteSpace=wrap;html=1;rounded=1;align=center;fillColor=#dae8fc;strokeColor=#6c8ebf;" parent="1" vertex="1">
          <mxGeometry x="30.080000000000013" y="220" width="140" height="60" as="geometry" />
        </mxCell>
        <mxCell id="tbHWGJce0Dj6GsjQu1Z4-27" value="" style="edgeStyle=orthogonalEdgeStyle;rounded=0;orthogonalLoop=1;jettySize=auto;html=1;entryX=0;entryY=0.5;entryDx=0;entryDy=0;" parent="1" source="tbHWGJce0Dj6GsjQu1Z4-9" target="tbHWGJce0Dj6GsjQu1Z4-26" edge="1">
          <mxGeometry relative="1" as="geometry">
            <Array as="points">
              <mxPoint x="190" y="420" />
              <mxPoint x="190" y="445" />
            </Array>
          </mxGeometry>
        </mxCell>
        <mxCell id="jmNkkBRaGiyjRFW7MrC_-11" style="edgeStyle=orthogonalEdgeStyle;rounded=0;orthogonalLoop=1;jettySize=auto;html=1;exitX=0.5;exitY=1;exitDx=0;exitDy=0;entryX=0.5;entryY=0;entryDx=0;entryDy=0;" parent="1" source="tbHWGJce0Dj6GsjQu1Z4-9" target="jmNkkBRaGiyjRFW7MrC_-5" edge="1">
          <mxGeometry relative="1" as="geometry" />
        </mxCell>
        <mxCell id="tbHWGJce0Dj6GsjQu1Z4-9" value="&lt;div&gt;&lt;span&gt;&amp;nbsp; &amp;nbsp; &amp;nbsp; &amp;nbsp; List&lt;/span&gt;&lt;/div&gt;&lt;ul&gt;&lt;li style=&quot;text-align: left&quot;&gt;Problem/Question&lt;/li&gt;&lt;li style=&quot;text-align: left&quot;&gt;Assumptions&lt;/li&gt;&lt;li style=&quot;text-align: left&quot;&gt;Contributions&lt;/li&gt;&lt;li style=&quot;text-align: left&quot;&gt;Limitations&lt;/li&gt;&lt;li style=&quot;text-align: left&quot;&gt;Problem extensions&lt;/li&gt;&lt;li style=&quot;text-align: left&quot;&gt;Compare to other works?&lt;/li&gt;&lt;/ul&gt;" style="whiteSpace=wrap;html=1;rounded=1;fillColor=#dae8fc;strokeColor=#6c8ebf;verticalAlign=middle;spacingLeft=-15;" parent="1" vertex="1">
          <mxGeometry x="30.080000000000013" y="350" width="140" height="140" as="geometry" />
        </mxCell>
        <mxCell id="tbHWGJce0Dj6GsjQu1Z4-29" value="" style="edgeStyle=orthogonalEdgeStyle;rounded=0;orthogonalLoop=1;jettySize=auto;html=1;" parent="1" source="tbHWGJce0Dj6GsjQu1Z4-11" target="tbHWGJce0Dj6GsjQu1Z4-28" edge="1">
          <mxGeometry relative="1" as="geometry" />
        </mxCell>
        <mxCell id="tbHWGJce0Dj6GsjQu1Z4-11" value="Read the whole paper again and workout the proofs" style="whiteSpace=wrap;html=1;rounded=1;fillColor=#d5e8d4;strokeColor=#82b366;" parent="1" vertex="1">
          <mxGeometry x="30" y="580" width="140" height="60" as="geometry" />
        </mxCell>
        <mxCell id="tbHWGJce0Dj6GsjQu1Z4-13" value="Decide if the paper is relevant and if you want to keep reading" style="whiteSpace=wrap;html=1;rounded=1;shadow=0;glass=0;sketch=0;fillColor=#f8cecc;strokeColor=#b85450;" parent="1" vertex="1">
          <mxGeometry x="200.08" y="11.25" width="199.98" height="38.75" as="geometry" />
        </mxCell>
        <mxCell id="tbHWGJce0Dj6GsjQu1Z4-18" style="edgeStyle=orthogonalEdgeStyle;rounded=0;orthogonalLoop=1;jettySize=auto;html=1;exitX=0.5;exitY=0;exitDx=0;exitDy=0;entryX=0.5;entryY=1;entryDx=0;entryDy=0;" parent="1" source="tbHWGJce0Dj6GsjQu1Z4-16" target="tbHWGJce0Dj6GsjQu1Z4-13" edge="1">
          <mxGeometry relative="1" as="geometry" />
        </mxCell>
        <mxCell id="tbHWGJce0Dj6GsjQu1Z4-16" value="Grasp the outline, the question it attempts to answer, how it relates to other works and the assumptions it makes" style="whiteSpace=wrap;html=1;rounded=1;align=center;fillColor=#ffe6cc;strokeColor=#d79b00;" parent="1" vertex="1">
          <mxGeometry x="199.83999999999997" y="90" width="200" height="62.5" as="geometry" />
        </mxCell>
        <mxCell id="tbHWGJce0Dj6GsjQu1Z4-19" value="Avoid being biased by the papers&#39; solution. Easier to come up with different solutions before reading the paper than after." style="whiteSpace=wrap;html=1;rounded=1;fillColor=#fff2cc;strokeColor=#d6b656;verticalAlign=middle;horizontal=1;" parent="1" vertex="1">
          <mxGeometry x="200.14000000000007" y="160" width="199.98" height="70" as="geometry" />
        </mxCell>
        <mxCell id="tbHWGJce0Dj6GsjQu1Z4-24" value="&lt;div&gt;&lt;span&gt;&lt;br&gt;&lt;/span&gt;&lt;/div&gt;&lt;div style=&quot;text-align: center&quot;&gt;&lt;span&gt;&amp;nbsp; &amp;nbsp; &amp;nbsp;If you don&#39;t completely understand a section and get stuck&lt;/span&gt;&lt;/div&gt;&lt;ul&gt;&lt;li&gt;Move on to the next section. Might be able to understand after going over the whole paper.&lt;/li&gt;&lt;/ul&gt;&lt;ul&gt;&lt;li&gt;Write down the presented details in your &lt;b&gt;own &lt;/b&gt;words.&lt;/li&gt;&lt;/ul&gt;" style="whiteSpace=wrap;html=1;rounded=1;fillColor=#f8cecc;strokeColor=#b85450;spacingLeft=-20;align=left;" parent="1" vertex="1">
          <mxGeometry x="200.14000000000001" y="240" width="200.04" height="150" as="geometry" />
        </mxCell>
        <mxCell id="tbHWGJce0Dj6GsjQu1Z4-26" value="Evaluate the papers&#39; value. Is the question being solved important or interesting?&amp;nbsp;" style="whiteSpace=wrap;html=1;rounded=1;fillColor=#fff2cc;strokeColor=#d6b656;" parent="1" vertex="1">
          <mxGeometry x="199.88000000000002" y="410" width="200" height="70" as="geometry" />
        </mxCell>
        <mxCell id="tbHWGJce0Dj6GsjQu1Z4-28" value="If working on a similar problem or an extension and need to understand every detail" style="whiteSpace=wrap;html=1;rounded=1;fillColor=#fff2cc;strokeColor=#d6b656;" parent="1" vertex="1">
          <mxGeometry x="199.8999999999999" y="585" width="199.98" height="50" as="geometry" />
        </mxCell>
        <mxCell id="jmNkkBRaGiyjRFW7MrC_-10" style="edgeStyle=orthogonalEdgeStyle;rounded=0;orthogonalLoop=1;jettySize=auto;html=1;exitX=0.5;exitY=1;exitDx=0;exitDy=0;entryX=0.5;entryY=0;entryDx=0;entryDy=0;" parent="1" source="jmNkkBRaGiyjRFW7MrC_-5" target="tbHWGJce0Dj6GsjQu1Z4-11" edge="1">
          <mxGeometry relative="1" as="geometry" />
        </mxCell>
        <mxCell id="xSgbeVniZeZdo-TaIFkp-1" style="edgeStyle=orthogonalEdgeStyle;rounded=0;orthogonalLoop=1;jettySize=auto;html=1;exitX=1;exitY=0.5;exitDx=0;exitDy=0;" parent="1" source="jmNkkBRaGiyjRFW7MrC_-5" edge="1">
          <mxGeometry relative="1" as="geometry">
            <mxPoint x="200.08" y="534.9444444444445" as="targetPoint" />
          </mxGeometry>
        </mxCell>
        <mxCell id="jmNkkBRaGiyjRFW7MrC_-5" value="Distill the paper to its core details/components" style="whiteSpace=wrap;html=1;rounded=1;fillColor=#dae8fc;strokeColor=#6c8ebf;" parent="1" vertex="1">
          <mxGeometry x="30" y="510" width="140" height="50" as="geometry" />
        </mxCell>
        <mxCell id="cU1wx5OKAQBh6w2Gunx4-2" value="" style="edgeStyle=orthogonalEdgeStyle;rounded=0;orthogonalLoop=1;jettySize=auto;html=1;" edge="1" parent="1" source="jmNkkBRaGiyjRFW7MrC_-7" target="cU1wx5OKAQBh6w2Gunx4-1">
          <mxGeometry relative="1" as="geometry" />
        </mxCell>
        <mxCell id="jmNkkBRaGiyjRFW7MrC_-7" value="Will make it easier to remember the paper and its details" style="whiteSpace=wrap;html=1;rounded=1;strokeColor=#d6b656;fillColor=#fff2cc;" parent="1" vertex="1">
          <mxGeometry x="199.83999999999995" y="512.5" width="200.04" height="45" as="geometry" />
        </mxCell>
        <mxCell id="jmNkkBRaGiyjRFW7MrC_-13" value="The conference version of a paper is usually better at explaining some details compared to its journal version. Journal versions might be too polished and miss some things that make it easier to understand the paper." style="rounded=1;whiteSpace=wrap;html=1;fillColor=#e1d5e7;strokeColor=#9673a6;" parent="1" vertex="1">
          <mxGeometry x="420.00000000000006" y="121.25" width="210" height="118.75" as="geometry" />
        </mxCell>
        <mxCell id="jmNkkBRaGiyjRFW7MrC_-16" value="Write down minor details and notes on the paper or in a notebook. It makes it easier to quickly remember the paper&#39;s details if you get back to it after a while." style="rounded=1;whiteSpace=wrap;html=1;fillColor=#e1d5e7;strokeColor=#9673a6;" parent="1" vertex="1">
          <mxGeometry x="420.00000000000006" y="11.25" width="210" height="98.75" as="geometry" />
        </mxCell>
        <mxCell id="QFe-tPKMCLjhRltFGSoV-1" value="&lt;p style=&quot;text-align: center ; color: rgb(14 , 16 , 26) ; background: transparent ; margin-top: 0pt ; margin-bottom: 0pt&quot;&gt;&lt;strong style=&quot;background: transparent ; margin-top: 0pt ; margin-bottom: 0pt&quot;&gt;Maintain a Research Journal&lt;/strong&gt;&lt;/p&gt;&lt;ul style=&quot;color: rgb(14 , 16 , 26) ; background: transparent ; margin-top: 0pt ; margin-bottom: 0pt&quot;&gt;&lt;li style=&quot;background: transparent ; margin-top: 0pt ; margin-bottom: 0pt ; list-style-type: disc&quot;&gt;&lt;span style=&quot;background: transparent ; margin-top: 0pt ; margin-bottom: 0pt&quot;&gt;Ideas you had thought of each week&lt;/span&gt;&lt;/li&gt;&lt;li style=&quot;background: transparent ; margin-top: 0pt ; margin-bottom: 0pt ; list-style-type: disc&quot;&gt;&lt;span style=&quot;background: transparent ; margin-top: 0pt ; margin-bottom: 0pt&quot;&gt;What you did each week&lt;/span&gt;&lt;/li&gt;&lt;li style=&quot;background: transparent ; margin-top: 0pt ; margin-bottom: 0pt ; list-style-type: disc&quot;&gt;&lt;span style=&quot;background: transparent ; margin-top: 0pt ; margin-bottom: 0pt&quot;&gt;Any questions you have&lt;/span&gt;&lt;/li&gt;&lt;li style=&quot;background: transparent ; margin-top: 0pt ; margin-bottom: 0pt ; list-style-type: disc&quot;&gt;&lt;span style=&quot;background: transparent ; margin-top: 0pt ; margin-bottom: 0pt&quot;&gt;Answers to the questions once you find them&lt;/span&gt;&lt;/li&gt;&lt;li style=&quot;background: transparent ; margin-top: 0pt ; margin-bottom: 0pt ; list-style-type: disc&quot;&gt;&lt;span style=&quot;background: transparent ; margin-top: 0pt ; margin-bottom: 0pt&quot;&gt;Things you think might be important&amp;nbsp;&lt;/span&gt;&lt;/li&gt;&lt;/ul&gt;" style="rounded=1;whiteSpace=wrap;html=1;fillColor=#f5f5f5;strokeColor=#666666;fontColor=#333333;spacingLeft=-15;align=left;" parent="1" vertex="1">
          <mxGeometry x="420.00000000000006" y="250" width="210" height="170" as="geometry" />
        </mxCell>
        <mxCell id="QFe-tPKMCLjhRltFGSoV-5" style="edgeStyle=orthogonalEdgeStyle;rounded=0;orthogonalLoop=1;jettySize=auto;html=1;entryX=0.25;entryY=1;entryDx=0;entryDy=0;" parent="1" source="tbHWGJce0Dj6GsjQu1Z4-11" target="tbHWGJce0Dj6GsjQu1Z4-11" edge="1">
          <mxGeometry relative="1" as="geometry">
            <Array as="points">
              <mxPoint x="140.00000000000003" y="660" />
              <mxPoint x="65" y="660" />
            </Array>
          </mxGeometry>
        </mxCell>
        <mxCell id="cU1wx5OKAQBh6w2Gunx4-1" value="&lt;div&gt;&lt;br&gt;&lt;/div&gt;&lt;div&gt;&lt;br&gt;&lt;/div&gt;&lt;div&gt;&lt;br&gt;&lt;/div&gt;&lt;div&gt;&lt;br&gt;&lt;/div&gt;&lt;ul&gt;&lt;li&gt;Identify and understand each component of the method/problem&lt;/li&gt;&lt;li&gt;Look for structures in the problem that could be used to improve the current solution&lt;/li&gt;&lt;li&gt;Question the need for each component and look for alternatives for each of them&lt;br&gt;&lt;/li&gt;&lt;/ul&gt;&lt;br&gt;&lt;br&gt;&lt;br&gt;" style="whiteSpace=wrap;html=1;rounded=1;strokeColor=#d6b656;fillColor=#fff2cc;spacingLeft=-20;align=left;" vertex="1" parent="1">
          <mxGeometry x="420" y="466.64" width="210" height="136.72" as="geometry" />
        </mxCell>
      </root>
    </mxGraphModel>
  </diagram>
</mxfile>
